# xmcd
#
# Track frame offsets:
#	150
#	42028
#	86102
#	132038
#	170520
#	209292
#	253176
#	285753
#
# Disc length: 4304 seconds
#
# Revision: 1
# Processed by: cddbd v1.5.2PL0 Copyright (c) Steve Scherf et al.
# Submitted via: audiograbber 1.83.01
#
DISCID=6710ce08
DTITLE=Kempowski, Walter - Alles umsonst - CD 6
DYEAR=1900
DGENRE=
TTITLE0=CD 6 - Track  1
TTITLE1=CD 6 - Track  2
TTITLE2=CD 6 - Track  3
TTITLE3=CD 6 - Track  4
TTITLE4=CD 6 - Track  5
TTITLE5=CD 6 - Track  6
TTITLE6=CD 6 - Track  7
TTITLE7=CD 6 - Track  8
EXTD=
EXTT0=
EXTT1=
EXTT2=
EXTT3=
EXTT4=
EXTT5=
EXTT6=
EXTT7=
PLAYORDER=
